<mxfile host="app.diagrams.net" modified="2022-12-15T13:27:51.682Z" agent="5.0 (X11; Linux x86_64) AppleWebKit/537.36 (KHTML, like Gecko) Chrome/108.0.0.0 Safari/537.36" etag="K-h-avwnw6CaLc8KLFVk" version="20.7.2" type="github">
  <diagram id="R2lEEEUBdFMjLlhIrx00" name="Page-1">
    <mxGraphModel dx="2049" dy="1191" grid="1" gridSize="10" guides="1" tooltips="1" connect="1" arrows="1" fold="1" page="1" pageScale="1" pageWidth="850" pageHeight="1100" math="0" shadow="0" extFonts="Permanent Marker^https://fonts.googleapis.com/css?family=Permanent+Marker">
      <root>
        <mxCell id="0" />
        <mxCell id="1" parent="0" />
        <mxCell id="C-vyLk0tnHw3VtMMgP7b-1" value="" style="edgeStyle=entityRelationEdgeStyle;endArrow=ERzeroToMany;startArrow=ERone;endFill=1;startFill=0;" parent="1" source="C-vyLk0tnHw3VtMMgP7b-24" target="C-vyLk0tnHw3VtMMgP7b-6" edge="1">
          <mxGeometry width="100" height="100" relative="1" as="geometry">
            <mxPoint x="340" y="1148" as="sourcePoint" />
            <mxPoint x="440" y="1048" as="targetPoint" />
          </mxGeometry>
        </mxCell>
        <mxCell id="C-vyLk0tnHw3VtMMgP7b-12" value="" style="edgeStyle=orthogonalEdgeStyle;endArrow=ERzeroToMany;startArrow=ERone;endFill=1;startFill=0;exitX=1;exitY=0.5;exitDx=0;exitDy=0;entryX=0;entryY=0.5;entryDx=0;entryDy=0;" parent="1" source="C-vyLk0tnHw3VtMMgP7b-9" edge="1">
          <mxGeometry width="100" height="100" relative="1" as="geometry">
            <mxPoint x="400" y="678" as="sourcePoint" />
            <mxPoint x="600" y="678" as="targetPoint" />
          </mxGeometry>
        </mxCell>
        <mxCell id="C-vyLk0tnHw3VtMMgP7b-2" value="Order" style="shape=table;startSize=30;container=1;collapsible=1;childLayout=tableLayout;fixedRows=1;rowLines=0;fontStyle=1;align=center;resizeLast=1;" parent="1" vertex="1">
          <mxGeometry x="310" y="669" width="220" height="192" as="geometry" />
        </mxCell>
        <mxCell id="C-vyLk0tnHw3VtMMgP7b-3" value="" style="shape=partialRectangle;collapsible=0;dropTarget=0;pointerEvents=0;fillColor=none;points=[[0,0.5],[1,0.5]];portConstraint=eastwest;top=0;left=0;right=0;bottom=1;" parent="C-vyLk0tnHw3VtMMgP7b-2" vertex="1">
          <mxGeometry y="30" width="220" height="30" as="geometry" />
        </mxCell>
        <mxCell id="C-vyLk0tnHw3VtMMgP7b-4" value="PK" style="shape=partialRectangle;overflow=hidden;connectable=0;fillColor=none;top=0;left=0;bottom=0;right=0;fontStyle=1;" parent="C-vyLk0tnHw3VtMMgP7b-3" vertex="1">
          <mxGeometry width="30" height="30" as="geometry">
            <mxRectangle width="30" height="30" as="alternateBounds" />
          </mxGeometry>
        </mxCell>
        <mxCell id="C-vyLk0tnHw3VtMMgP7b-5" value="id int NOT NULL " style="shape=partialRectangle;overflow=hidden;connectable=0;fillColor=none;top=0;left=0;bottom=0;right=0;align=left;spacingLeft=6;fontStyle=5;" parent="C-vyLk0tnHw3VtMMgP7b-3" vertex="1">
          <mxGeometry x="30" width="190" height="30" as="geometry">
            <mxRectangle width="190" height="30" as="alternateBounds" />
          </mxGeometry>
        </mxCell>
        <mxCell id="C-vyLk0tnHw3VtMMgP7b-6" value="" style="shape=partialRectangle;collapsible=0;dropTarget=0;pointerEvents=0;fillColor=none;points=[[0,0.5],[1,0.5]];portConstraint=eastwest;top=0;left=0;right=0;bottom=0;" parent="C-vyLk0tnHw3VtMMgP7b-2" vertex="1">
          <mxGeometry y="60" width="220" height="30" as="geometry" />
        </mxCell>
        <mxCell id="C-vyLk0tnHw3VtMMgP7b-7" value="FK1" style="shape=partialRectangle;overflow=hidden;connectable=0;fillColor=none;top=0;left=0;bottom=0;right=0;" parent="C-vyLk0tnHw3VtMMgP7b-6" vertex="1">
          <mxGeometry width="30" height="30" as="geometry">
            <mxRectangle width="30" height="30" as="alternateBounds" />
          </mxGeometry>
        </mxCell>
        <mxCell id="C-vyLk0tnHw3VtMMgP7b-8" value="customer_id int NOT NULL" style="shape=partialRectangle;overflow=hidden;connectable=0;fillColor=none;top=0;left=0;bottom=0;right=0;align=left;spacingLeft=6;" parent="C-vyLk0tnHw3VtMMgP7b-6" vertex="1">
          <mxGeometry x="30" width="190" height="30" as="geometry">
            <mxRectangle width="190" height="30" as="alternateBounds" />
          </mxGeometry>
        </mxCell>
        <mxCell id="C-vyLk0tnHw3VtMMgP7b-9" value="" style="shape=partialRectangle;collapsible=0;dropTarget=0;pointerEvents=0;fillColor=none;points=[[0,0.5],[1,0.5]];portConstraint=eastwest;top=0;left=0;right=0;bottom=0;" parent="C-vyLk0tnHw3VtMMgP7b-2" vertex="1">
          <mxGeometry y="90" width="220" height="30" as="geometry" />
        </mxCell>
        <mxCell id="C-vyLk0tnHw3VtMMgP7b-10" value="FK2" style="shape=partialRectangle;overflow=hidden;connectable=0;fillColor=none;top=0;left=0;bottom=0;right=0;" parent="C-vyLk0tnHw3VtMMgP7b-9" vertex="1">
          <mxGeometry width="30" height="30" as="geometry">
            <mxRectangle width="30" height="30" as="alternateBounds" />
          </mxGeometry>
        </mxCell>
        <mxCell id="C-vyLk0tnHw3VtMMgP7b-11" value="coffee_id int NOT NULL" style="shape=partialRectangle;overflow=hidden;connectable=0;fillColor=none;top=0;left=0;bottom=0;right=0;align=left;spacingLeft=6;" parent="C-vyLk0tnHw3VtMMgP7b-9" vertex="1">
          <mxGeometry x="30" width="190" height="30" as="geometry">
            <mxRectangle width="190" height="30" as="alternateBounds" />
          </mxGeometry>
        </mxCell>
        <mxCell id="C-vyLk0tnHw3VtMMgP7b-13" value="Coffee" style="shape=table;startSize=30;container=1;collapsible=1;childLayout=tableLayout;fixedRows=1;rowLines=0;fontStyle=1;align=center;resizeLast=1;" parent="1" vertex="1">
          <mxGeometry x="600" y="563" width="220" height="130" as="geometry" />
        </mxCell>
        <mxCell id="C-vyLk0tnHw3VtMMgP7b-14" value="" style="shape=partialRectangle;collapsible=0;dropTarget=0;pointerEvents=0;fillColor=none;points=[[0,0.5],[1,0.5]];portConstraint=eastwest;top=0;left=0;right=0;bottom=1;" parent="C-vyLk0tnHw3VtMMgP7b-13" vertex="1">
          <mxGeometry y="30" width="220" height="30" as="geometry" />
        </mxCell>
        <mxCell id="C-vyLk0tnHw3VtMMgP7b-15" value="PK" style="shape=partialRectangle;overflow=hidden;connectable=0;fillColor=none;top=0;left=0;bottom=0;right=0;fontStyle=1;" parent="C-vyLk0tnHw3VtMMgP7b-14" vertex="1">
          <mxGeometry width="30" height="30" as="geometry">
            <mxRectangle width="30" height="30" as="alternateBounds" />
          </mxGeometry>
        </mxCell>
        <mxCell id="C-vyLk0tnHw3VtMMgP7b-16" value="id" style="shape=partialRectangle;overflow=hidden;connectable=0;fillColor=none;top=0;left=0;bottom=0;right=0;align=left;spacingLeft=6;fontStyle=5;" parent="C-vyLk0tnHw3VtMMgP7b-14" vertex="1">
          <mxGeometry x="30" width="190" height="30" as="geometry">
            <mxRectangle width="190" height="30" as="alternateBounds" />
          </mxGeometry>
        </mxCell>
        <mxCell id="C-vyLk0tnHw3VtMMgP7b-17" value="" style="shape=partialRectangle;collapsible=0;dropTarget=0;pointerEvents=0;fillColor=none;points=[[0,0.5],[1,0.5]];portConstraint=eastwest;top=0;left=0;right=0;bottom=0;" parent="C-vyLk0tnHw3VtMMgP7b-13" vertex="1">
          <mxGeometry y="60" width="220" height="30" as="geometry" />
        </mxCell>
        <mxCell id="C-vyLk0tnHw3VtMMgP7b-18" value="FK1" style="shape=partialRectangle;overflow=hidden;connectable=0;fillColor=none;top=0;left=0;bottom=0;right=0;" parent="C-vyLk0tnHw3VtMMgP7b-17" vertex="1">
          <mxGeometry width="30" height="30" as="geometry">
            <mxRectangle width="30" height="30" as="alternateBounds" />
          </mxGeometry>
        </mxCell>
        <mxCell id="C-vyLk0tnHw3VtMMgP7b-19" value="name string NOT NULL" style="shape=partialRectangle;overflow=hidden;connectable=0;fillColor=none;top=0;left=0;bottom=0;right=0;align=left;spacingLeft=6;" parent="C-vyLk0tnHw3VtMMgP7b-17" vertex="1">
          <mxGeometry x="30" width="190" height="30" as="geometry">
            <mxRectangle width="190" height="30" as="alternateBounds" />
          </mxGeometry>
        </mxCell>
        <mxCell id="C-vyLk0tnHw3VtMMgP7b-20" value="" style="shape=partialRectangle;collapsible=0;dropTarget=0;pointerEvents=0;fillColor=none;points=[[0,0.5],[1,0.5]];portConstraint=eastwest;top=0;left=0;right=0;bottom=0;" parent="C-vyLk0tnHw3VtMMgP7b-13" vertex="1">
          <mxGeometry y="90" width="220" height="30" as="geometry" />
        </mxCell>
        <mxCell id="C-vyLk0tnHw3VtMMgP7b-21" value="" style="shape=partialRectangle;overflow=hidden;connectable=0;fillColor=none;top=0;left=0;bottom=0;right=0;" parent="C-vyLk0tnHw3VtMMgP7b-20" vertex="1">
          <mxGeometry width="30" height="30" as="geometry">
            <mxRectangle width="30" height="30" as="alternateBounds" />
          </mxGeometry>
        </mxCell>
        <mxCell id="C-vyLk0tnHw3VtMMgP7b-22" value="shipment_date date NOT NULL" style="shape=partialRectangle;overflow=hidden;connectable=0;fillColor=none;top=0;left=0;bottom=0;right=0;align=left;spacingLeft=6;" parent="C-vyLk0tnHw3VtMMgP7b-20" vertex="1">
          <mxGeometry x="30" width="190" height="30" as="geometry">
            <mxRectangle width="190" height="30" as="alternateBounds" />
          </mxGeometry>
        </mxCell>
        <mxCell id="C-vyLk0tnHw3VtMMgP7b-23" value="Customers" style="shape=table;startSize=30;container=1;collapsible=1;childLayout=tableLayout;fixedRows=1;rowLines=0;fontStyle=1;align=center;resizeLast=1;" parent="1" vertex="1">
          <mxGeometry x="30" y="593" width="220" height="100" as="geometry" />
        </mxCell>
        <mxCell id="C-vyLk0tnHw3VtMMgP7b-24" value="" style="shape=partialRectangle;collapsible=0;dropTarget=0;pointerEvents=0;fillColor=none;points=[[0,0.5],[1,0.5]];portConstraint=eastwest;top=0;left=0;right=0;bottom=1;" parent="C-vyLk0tnHw3VtMMgP7b-23" vertex="1">
          <mxGeometry y="30" width="220" height="30" as="geometry" />
        </mxCell>
        <mxCell id="C-vyLk0tnHw3VtMMgP7b-25" value="PK" style="shape=partialRectangle;overflow=hidden;connectable=0;fillColor=none;top=0;left=0;bottom=0;right=0;fontStyle=1;" parent="C-vyLk0tnHw3VtMMgP7b-24" vertex="1">
          <mxGeometry width="30" height="30" as="geometry">
            <mxRectangle width="30" height="30" as="alternateBounds" />
          </mxGeometry>
        </mxCell>
        <mxCell id="C-vyLk0tnHw3VtMMgP7b-26" value="id int NOT NULL" style="shape=partialRectangle;overflow=hidden;connectable=0;fillColor=none;top=0;left=0;bottom=0;right=0;align=left;spacingLeft=6;fontStyle=5;" parent="C-vyLk0tnHw3VtMMgP7b-24" vertex="1">
          <mxGeometry x="30" width="190" height="30" as="geometry">
            <mxRectangle width="190" height="30" as="alternateBounds" />
          </mxGeometry>
        </mxCell>
        <mxCell id="C-vyLk0tnHw3VtMMgP7b-27" value="" style="shape=partialRectangle;collapsible=0;dropTarget=0;pointerEvents=0;fillColor=none;points=[[0,0.5],[1,0.5]];portConstraint=eastwest;top=0;left=0;right=0;bottom=0;" parent="C-vyLk0tnHw3VtMMgP7b-23" vertex="1">
          <mxGeometry y="60" width="220" height="30" as="geometry" />
        </mxCell>
        <mxCell id="C-vyLk0tnHw3VtMMgP7b-28" value="" style="shape=partialRectangle;overflow=hidden;connectable=0;fillColor=none;top=0;left=0;bottom=0;right=0;" parent="C-vyLk0tnHw3VtMMgP7b-27" vertex="1">
          <mxGeometry width="30" height="30" as="geometry">
            <mxRectangle width="30" height="30" as="alternateBounds" />
          </mxGeometry>
        </mxCell>
        <mxCell id="C-vyLk0tnHw3VtMMgP7b-29" value="table_id int NOT NULL" style="shape=partialRectangle;overflow=hidden;connectable=0;fillColor=none;top=0;left=0;bottom=0;right=0;align=left;spacingLeft=6;" parent="C-vyLk0tnHw3VtMMgP7b-27" vertex="1">
          <mxGeometry x="30" width="190" height="30" as="geometry">
            <mxRectangle width="190" height="30" as="alternateBounds" />
          </mxGeometry>
        </mxCell>
        <mxCell id="Wo0gHfEfH4QIrRDhFoly-7" style="edgeStyle=orthogonalEdgeStyle;rounded=0;orthogonalLoop=1;jettySize=auto;html=1;entryX=0;entryY=0.5;entryDx=0;entryDy=0;shape=link;" edge="1" parent="1" source="Wo0gHfEfH4QIrRDhFoly-1" target="Wo0gHfEfH4QIrRDhFoly-5">
          <mxGeometry relative="1" as="geometry" />
        </mxCell>
        <mxCell id="Wo0gHfEfH4QIrRDhFoly-1" value="&lt;font style=&quot;font-size: 17px;&quot;&gt;&lt;b&gt;Customer&lt;/b&gt;&lt;/font&gt;" style="rounded=0;whiteSpace=wrap;html=1;" vertex="1" parent="1">
          <mxGeometry x="135" y="150" width="120" height="60" as="geometry" />
        </mxCell>
        <mxCell id="Wo0gHfEfH4QIrRDhFoly-19" style="rounded=0;orthogonalLoop=1;jettySize=auto;html=1;entryX=0;entryY=0.5;entryDx=0;entryDy=0;fontSize=15;startArrow=none;startFill=0;endArrow=none;endFill=0;" edge="1" parent="1" source="Wo0gHfEfH4QIrRDhFoly-2" target="Wo0gHfEfH4QIrRDhFoly-12">
          <mxGeometry relative="1" as="geometry" />
        </mxCell>
        <mxCell id="Wo0gHfEfH4QIrRDhFoly-2" value="&lt;b&gt;&lt;font style=&quot;font-size: 16px;&quot;&gt;Coffee&lt;/font&gt;&lt;/b&gt;" style="rounded=0;whiteSpace=wrap;html=1;" vertex="1" parent="1">
          <mxGeometry x="530" y="190" width="120" height="60" as="geometry" />
        </mxCell>
        <mxCell id="Wo0gHfEfH4QIrRDhFoly-9" style="edgeStyle=orthogonalEdgeStyle;rounded=0;orthogonalLoop=1;jettySize=auto;html=1;entryX=0.5;entryY=1;entryDx=0;entryDy=0;shape=link;" edge="1" parent="1" source="Wo0gHfEfH4QIrRDhFoly-3" target="Wo0gHfEfH4QIrRDhFoly-6">
          <mxGeometry relative="1" as="geometry" />
        </mxCell>
        <mxCell id="Wo0gHfEfH4QIrRDhFoly-3" value="&lt;font style=&quot;font-size: 17px;&quot;&gt;&lt;b&gt;Barista&lt;/b&gt;&lt;/font&gt;" style="rounded=0;whiteSpace=wrap;html=1;" vertex="1" parent="1">
          <mxGeometry x="135" y="390" width="120" height="60" as="geometry" />
        </mxCell>
        <mxCell id="Wo0gHfEfH4QIrRDhFoly-41" style="edgeStyle=orthogonalEdgeStyle;shape=link;rounded=0;orthogonalLoop=1;jettySize=auto;html=1;entryX=0.5;entryY=1;entryDx=0;entryDy=0;fontSize=16;startArrow=none;startFill=0;endArrow=none;endFill=0;" edge="1" parent="1" source="Wo0gHfEfH4QIrRDhFoly-4" target="Wo0gHfEfH4QIrRDhFoly-5">
          <mxGeometry relative="1" as="geometry" />
        </mxCell>
        <mxCell id="Wo0gHfEfH4QIrRDhFoly-53" style="edgeStyle=orthogonalEdgeStyle;shape=link;rounded=0;orthogonalLoop=1;jettySize=auto;html=1;fontSize=16;startArrow=none;startFill=0;endArrow=none;endFill=0;" edge="1" parent="1" source="Wo0gHfEfH4QIrRDhFoly-4" target="Wo0gHfEfH4QIrRDhFoly-6">
          <mxGeometry relative="1" as="geometry" />
        </mxCell>
        <mxCell id="Wo0gHfEfH4QIrRDhFoly-4" value="&lt;b&gt;&lt;font style=&quot;font-size: 16px;&quot;&gt;Barman&lt;/font&gt;&lt;/b&gt;" style="rounded=0;whiteSpace=wrap;html=1;" vertex="1" parent="1">
          <mxGeometry x="340" y="330" width="120" height="60" as="geometry" />
        </mxCell>
        <mxCell id="Wo0gHfEfH4QIrRDhFoly-8" style="edgeStyle=orthogonalEdgeStyle;rounded=0;orthogonalLoop=1;jettySize=auto;html=1;exitX=1;exitY=0.5;exitDx=0;exitDy=0;entryX=0.017;entryY=0.617;entryDx=0;entryDy=0;entryPerimeter=0;shape=link;" edge="1" parent="1" source="Wo0gHfEfH4QIrRDhFoly-5" target="Wo0gHfEfH4QIrRDhFoly-2">
          <mxGeometry relative="1" as="geometry">
            <Array as="points">
              <mxPoint x="532" y="220" />
            </Array>
          </mxGeometry>
        </mxCell>
        <mxCell id="Wo0gHfEfH4QIrRDhFoly-5" value="&lt;font style=&quot;font-size: 14px;&quot;&gt;Order&lt;/font&gt;" style="rhombus;whiteSpace=wrap;html=1;" vertex="1" parent="1">
          <mxGeometry x="360" y="180" width="80" height="80" as="geometry" />
        </mxCell>
        <mxCell id="Wo0gHfEfH4QIrRDhFoly-10" style="edgeStyle=orthogonalEdgeStyle;rounded=0;orthogonalLoop=1;jettySize=auto;html=1;entryX=0.5;entryY=1;entryDx=0;entryDy=0;startArrow=none;startFill=0;endArrow=none;endFill=0;shape=link;" edge="1" parent="1" source="Wo0gHfEfH4QIrRDhFoly-6" target="Wo0gHfEfH4QIrRDhFoly-1">
          <mxGeometry relative="1" as="geometry" />
        </mxCell>
        <mxCell id="Wo0gHfEfH4QIrRDhFoly-6" value="&lt;font style=&quot;font-size: 14px;&quot;&gt;Takes_order&lt;/font&gt;" style="rhombus;whiteSpace=wrap;html=1;" vertex="1" parent="1">
          <mxGeometry x="140" y="260" width="110" height="80" as="geometry" />
        </mxCell>
        <mxCell id="Wo0gHfEfH4QIrRDhFoly-11" value="&lt;b&gt;&lt;font style=&quot;font-size: 21px;&quot;&gt;&lt;u&gt;ER Diagram&lt;/u&gt;&lt;/font&gt;&lt;/b&gt;" style="text;html=1;align=center;verticalAlign=middle;resizable=0;points=[];autosize=1;strokeColor=none;fillColor=none;" vertex="1" parent="1">
          <mxGeometry x="90" y="30" width="140" height="40" as="geometry" />
        </mxCell>
        <mxCell id="Wo0gHfEfH4QIrRDhFoly-12" value="&lt;font style=&quot;font-size: 15px;&quot;&gt;id&lt;/font&gt;" style="ellipse;whiteSpace=wrap;html=1;fontSize=21;" vertex="1" parent="1">
          <mxGeometry x="690" y="150" width="70" height="20" as="geometry" />
        </mxCell>
        <mxCell id="Wo0gHfEfH4QIrRDhFoly-13" value="&lt;font style=&quot;font-size: 15px;&quot;&gt;name&lt;/font&gt;" style="ellipse;whiteSpace=wrap;html=1;fontSize=21;" vertex="1" parent="1">
          <mxGeometry x="710" y="190" width="70" height="20" as="geometry" />
        </mxCell>
        <mxCell id="Wo0gHfEfH4QIrRDhFoly-14" value="&lt;font style=&quot;font-size: 15px;&quot;&gt;description&lt;/font&gt;" style="ellipse;whiteSpace=wrap;html=1;fontSize=21;" vertex="1" parent="1">
          <mxGeometry x="700" y="230" width="90" height="30" as="geometry" />
        </mxCell>
        <mxCell id="Wo0gHfEfH4QIrRDhFoly-15" value="&lt;font style=&quot;font-size: 15px;&quot;&gt;brewing_time&lt;/font&gt;" style="ellipse;whiteSpace=wrap;html=1;fontSize=21;" vertex="1" parent="1">
          <mxGeometry x="660" y="280" width="110" height="40" as="geometry" />
        </mxCell>
        <mxCell id="Wo0gHfEfH4QIrRDhFoly-16" value="&lt;font style=&quot;font-size: 15px;&quot;&gt;coffee_amount&lt;/font&gt;" style="ellipse;whiteSpace=wrap;html=1;fontSize=21;" vertex="1" parent="1">
          <mxGeometry x="600" y="330" width="110" height="40" as="geometry" />
        </mxCell>
        <mxCell id="Wo0gHfEfH4QIrRDhFoly-18" value="&lt;font style=&quot;font-size: 15px;&quot;&gt;price&lt;/font&gt;" style="ellipse;whiteSpace=wrap;html=1;fontSize=21;" vertex="1" parent="1">
          <mxGeometry x="510" y="320" width="80" height="30" as="geometry" />
        </mxCell>
        <mxCell id="Wo0gHfEfH4QIrRDhFoly-20" style="rounded=0;orthogonalLoop=1;jettySize=auto;html=1;entryX=0;entryY=0.5;entryDx=0;entryDy=0;fontSize=15;startArrow=none;startFill=0;endArrow=none;endFill=0;exitX=1;exitY=0.25;exitDx=0;exitDy=0;" edge="1" parent="1" source="Wo0gHfEfH4QIrRDhFoly-2" target="Wo0gHfEfH4QIrRDhFoly-13">
          <mxGeometry relative="1" as="geometry">
            <mxPoint x="645" y="220" as="sourcePoint" />
            <mxPoint x="685" y="200" as="targetPoint" />
          </mxGeometry>
        </mxCell>
        <mxCell id="Wo0gHfEfH4QIrRDhFoly-21" style="rounded=0;orthogonalLoop=1;jettySize=auto;html=1;entryX=0.182;entryY=0;entryDx=0;entryDy=0;fontSize=15;startArrow=none;startFill=0;endArrow=none;endFill=0;exitX=1;exitY=0.75;exitDx=0;exitDy=0;entryPerimeter=0;" edge="1" parent="1" source="Wo0gHfEfH4QIrRDhFoly-2" target="Wo0gHfEfH4QIrRDhFoly-15">
          <mxGeometry relative="1" as="geometry">
            <mxPoint x="640" y="270" as="sourcePoint" />
            <mxPoint x="680" y="250" as="targetPoint" />
          </mxGeometry>
        </mxCell>
        <mxCell id="Wo0gHfEfH4QIrRDhFoly-22" style="rounded=0;orthogonalLoop=1;jettySize=auto;html=1;entryX=0.85;entryY=1.017;entryDx=0;entryDy=0;fontSize=15;startArrow=none;startFill=0;endArrow=none;endFill=0;entryPerimeter=0;exitX=0.236;exitY=-0.025;exitDx=0;exitDy=0;exitPerimeter=0;" edge="1" parent="1" source="Wo0gHfEfH4QIrRDhFoly-16" target="Wo0gHfEfH4QIrRDhFoly-2">
          <mxGeometry relative="1" as="geometry">
            <mxPoint x="600" y="300" as="sourcePoint" />
            <mxPoint x="640" y="280" as="targetPoint" />
          </mxGeometry>
        </mxCell>
        <mxCell id="Wo0gHfEfH4QIrRDhFoly-23" style="rounded=0;orthogonalLoop=1;jettySize=auto;html=1;entryX=0.392;entryY=1.05;entryDx=0;entryDy=0;fontSize=15;startArrow=none;startFill=0;endArrow=none;endFill=0;entryPerimeter=0;exitX=0.5;exitY=0;exitDx=0;exitDy=0;" edge="1" parent="1" source="Wo0gHfEfH4QIrRDhFoly-18" target="Wo0gHfEfH4QIrRDhFoly-2">
          <mxGeometry relative="1" as="geometry">
            <mxPoint x="530" y="300" as="sourcePoint" />
            <mxPoint x="570" y="280" as="targetPoint" />
          </mxGeometry>
        </mxCell>
        <mxCell id="Wo0gHfEfH4QIrRDhFoly-25" style="rounded=0;orthogonalLoop=1;jettySize=auto;html=1;entryX=-0.011;entryY=0.267;entryDx=0;entryDy=0;fontSize=15;startArrow=none;startFill=0;endArrow=none;endFill=0;entryPerimeter=0;exitX=1;exitY=0.5;exitDx=0;exitDy=0;" edge="1" parent="1" source="Wo0gHfEfH4QIrRDhFoly-2" target="Wo0gHfEfH4QIrRDhFoly-14">
          <mxGeometry relative="1" as="geometry">
            <mxPoint x="640" y="220" as="sourcePoint" />
            <mxPoint x="680" y="200" as="targetPoint" />
          </mxGeometry>
        </mxCell>
        <mxCell id="Wo0gHfEfH4QIrRDhFoly-26" value="&lt;font style=&quot;font-size: 15px;&quot;&gt;id&lt;/font&gt;" style="ellipse;whiteSpace=wrap;html=1;fontSize=21;" vertex="1" parent="1">
          <mxGeometry x="20" y="380" width="80" height="30" as="geometry" />
        </mxCell>
        <mxCell id="Wo0gHfEfH4QIrRDhFoly-27" style="rounded=0;orthogonalLoop=1;jettySize=auto;html=1;entryX=0;entryY=0.25;entryDx=0;entryDy=0;fontSize=15;startArrow=none;startFill=0;endArrow=none;endFill=0;exitX=1;exitY=0.5;exitDx=0;exitDy=0;" edge="1" parent="1" source="Wo0gHfEfH4QIrRDhFoly-26" target="Wo0gHfEfH4QIrRDhFoly-3">
          <mxGeometry relative="1" as="geometry">
            <mxPoint x="80" y="453.5" as="sourcePoint" />
            <mxPoint x="117.03999999999996" y="406.5" as="targetPoint" />
          </mxGeometry>
        </mxCell>
        <mxCell id="Wo0gHfEfH4QIrRDhFoly-28" value="&lt;font style=&quot;font-size: 15px;&quot;&gt;name&lt;/font&gt;" style="ellipse;whiteSpace=wrap;html=1;fontSize=21;" vertex="1" parent="1">
          <mxGeometry x="30" y="430" width="80" height="30" as="geometry" />
        </mxCell>
        <mxCell id="Wo0gHfEfH4QIrRDhFoly-29" style="rounded=0;orthogonalLoop=1;jettySize=auto;html=1;fontSize=15;startArrow=none;startFill=0;endArrow=none;endFill=0;exitX=1;exitY=0.467;exitDx=0;exitDy=0;exitPerimeter=0;" edge="1" parent="1" source="Wo0gHfEfH4QIrRDhFoly-28">
          <mxGeometry relative="1" as="geometry">
            <mxPoint x="170" y="477" as="sourcePoint" />
            <mxPoint x="130" y="430" as="targetPoint" />
          </mxGeometry>
        </mxCell>
        <mxCell id="Wo0gHfEfH4QIrRDhFoly-30" value="&lt;font style=&quot;font-size: 15px;&quot;&gt;id&lt;/font&gt;" style="ellipse;whiteSpace=wrap;html=1;fontSize=21;" vertex="1" parent="1">
          <mxGeometry x="300" y="420" width="80" height="30" as="geometry" />
        </mxCell>
        <mxCell id="Wo0gHfEfH4QIrRDhFoly-31" style="rounded=0;orthogonalLoop=1;jettySize=auto;html=1;entryX=0.25;entryY=1;entryDx=0;entryDy=0;fontSize=15;startArrow=none;startFill=0;endArrow=none;endFill=0;exitX=0.5;exitY=0;exitDx=0;exitDy=0;" edge="1" parent="1" source="Wo0gHfEfH4QIrRDhFoly-30" target="Wo0gHfEfH4QIrRDhFoly-4">
          <mxGeometry relative="1" as="geometry">
            <mxPoint x="272.96000000000004" y="323.5" as="sourcePoint" />
            <mxPoint x="410" y="315.98" as="targetPoint" />
          </mxGeometry>
        </mxCell>
        <mxCell id="Wo0gHfEfH4QIrRDhFoly-32" value="&lt;font style=&quot;font-size: 15px;&quot;&gt;name&lt;/font&gt;" style="ellipse;whiteSpace=wrap;html=1;fontSize=21;" vertex="1" parent="1">
          <mxGeometry x="390" y="420" width="80" height="30" as="geometry" />
        </mxCell>
        <mxCell id="Wo0gHfEfH4QIrRDhFoly-33" style="rounded=0;orthogonalLoop=1;jettySize=auto;html=1;fontSize=15;startArrow=none;startFill=0;endArrow=none;endFill=0;entryX=0.75;entryY=1;entryDx=0;entryDy=0;" edge="1" parent="1" source="Wo0gHfEfH4QIrRDhFoly-32" target="Wo0gHfEfH4QIrRDhFoly-4">
          <mxGeometry relative="1" as="geometry">
            <mxPoint x="362.96000000000004" y="347" as="sourcePoint" />
            <mxPoint x="340.9200000000001" y="314" as="targetPoint" />
          </mxGeometry>
        </mxCell>
        <mxCell id="Wo0gHfEfH4QIrRDhFoly-42" value="&lt;font style=&quot;font-size: 15px;&quot;&gt;id&lt;/font&gt;" style="ellipse;whiteSpace=wrap;html=1;fontSize=21;" vertex="1" parent="1">
          <mxGeometry x="30" y="110" width="80" height="30" as="geometry" />
        </mxCell>
        <mxCell id="Wo0gHfEfH4QIrRDhFoly-43" style="rounded=0;orthogonalLoop=1;jettySize=auto;html=1;entryX=0;entryY=0;entryDx=0;entryDy=0;fontSize=15;startArrow=none;startFill=0;endArrow=none;endFill=0;exitX=1;exitY=0.5;exitDx=0;exitDy=0;" edge="1" parent="1" source="Wo0gHfEfH4QIrRDhFoly-42" target="Wo0gHfEfH4QIrRDhFoly-1">
          <mxGeometry relative="1" as="geometry">
            <mxPoint x="70" y="183.5" as="sourcePoint" />
            <mxPoint x="140" y="135" as="targetPoint" />
          </mxGeometry>
        </mxCell>
        <mxCell id="Wo0gHfEfH4QIrRDhFoly-44" value="&lt;font style=&quot;font-size: 15px;&quot;&gt;name&lt;/font&gt;" style="ellipse;whiteSpace=wrap;html=1;fontSize=21;" vertex="1" parent="1">
          <mxGeometry x="30" y="165" width="80" height="30" as="geometry" />
        </mxCell>
        <mxCell id="Wo0gHfEfH4QIrRDhFoly-45" style="rounded=0;orthogonalLoop=1;jettySize=auto;html=1;fontSize=15;startArrow=none;startFill=0;endArrow=none;endFill=0;exitX=1;exitY=0.5;exitDx=0;exitDy=0;entryX=-0.017;entryY=0.9;entryDx=0;entryDy=0;entryPerimeter=0;" edge="1" parent="1" source="Wo0gHfEfH4QIrRDhFoly-44">
          <mxGeometry relative="1" as="geometry">
            <mxPoint x="160" y="207" as="sourcePoint" />
            <mxPoint x="137.96000000000004" y="174" as="targetPoint" />
          </mxGeometry>
        </mxCell>
        <mxCell id="Wo0gHfEfH4QIrRDhFoly-46" style="rounded=0;orthogonalLoop=1;jettySize=auto;html=1;entryX=0.5;entryY=1;entryDx=0;entryDy=0;fontSize=15;startArrow=none;startFill=0;endArrow=none;endFill=0;exitX=0.35;exitY=0.175;exitDx=0;exitDy=0;exitPerimeter=0;" edge="1" parent="1" target="Wo0gHfEfH4QIrRDhFoly-47" source="Wo0gHfEfH4QIrRDhFoly-5">
          <mxGeometry relative="1" as="geometry">
            <mxPoint x="290" y="145" as="sourcePoint" />
          </mxGeometry>
        </mxCell>
        <mxCell id="Wo0gHfEfH4QIrRDhFoly-47" value="&lt;font style=&quot;font-size: 15px;&quot;&gt;at_table&lt;/font&gt;" style="ellipse;whiteSpace=wrap;html=1;fontSize=21;" vertex="1" parent="1">
          <mxGeometry x="315" y="115" width="110" height="35" as="geometry" />
        </mxCell>
        <mxCell id="Wo0gHfEfH4QIrRDhFoly-52" value="at_table boolean NOT NULL" style="shape=partialRectangle;overflow=hidden;connectable=0;fillColor=none;top=0;left=0;bottom=0;right=0;align=left;spacingLeft=6;" vertex="1" parent="1">
          <mxGeometry x="360" y="789" width="220" height="30" as="geometry">
            <mxRectangle width="220" height="30" as="alternateBounds" />
          </mxGeometry>
        </mxCell>
        <mxCell id="Wo0gHfEfH4QIrRDhFoly-54" value="order_date date NOT NULL" style="shape=partialRectangle;overflow=hidden;connectable=0;fillColor=none;top=0;left=0;bottom=0;right=0;align=left;spacingLeft=6;" vertex="1" parent="1">
          <mxGeometry x="360" y="819" width="220" height="30" as="geometry">
            <mxRectangle width="220" height="30" as="alternateBounds" />
          </mxGeometry>
        </mxCell>
        <mxCell id="Wo0gHfEfH4QIrRDhFoly-55" value="Barman" style="shape=table;startSize=30;container=1;collapsible=1;childLayout=tableLayout;fixedRows=1;rowLines=0;fontStyle=1;align=center;resizeLast=1;" vertex="1" parent="1">
          <mxGeometry x="30" y="800" width="220" height="100" as="geometry" />
        </mxCell>
        <mxCell id="Wo0gHfEfH4QIrRDhFoly-56" value="" style="shape=partialRectangle;collapsible=0;dropTarget=0;pointerEvents=0;fillColor=none;points=[[0,0.5],[1,0.5]];portConstraint=eastwest;top=0;left=0;right=0;bottom=1;" vertex="1" parent="Wo0gHfEfH4QIrRDhFoly-55">
          <mxGeometry y="30" width="220" height="30" as="geometry" />
        </mxCell>
        <mxCell id="Wo0gHfEfH4QIrRDhFoly-57" value="PK" style="shape=partialRectangle;overflow=hidden;connectable=0;fillColor=none;top=0;left=0;bottom=0;right=0;fontStyle=1;" vertex="1" parent="Wo0gHfEfH4QIrRDhFoly-56">
          <mxGeometry width="30" height="30" as="geometry">
            <mxRectangle width="30" height="30" as="alternateBounds" />
          </mxGeometry>
        </mxCell>
        <mxCell id="Wo0gHfEfH4QIrRDhFoly-58" value="id int NOT NULL" style="shape=partialRectangle;overflow=hidden;connectable=0;fillColor=none;top=0;left=0;bottom=0;right=0;align=left;spacingLeft=6;fontStyle=5;" vertex="1" parent="Wo0gHfEfH4QIrRDhFoly-56">
          <mxGeometry x="30" width="190" height="30" as="geometry">
            <mxRectangle width="190" height="30" as="alternateBounds" />
          </mxGeometry>
        </mxCell>
        <mxCell id="Wo0gHfEfH4QIrRDhFoly-59" value="" style="shape=partialRectangle;collapsible=0;dropTarget=0;pointerEvents=0;fillColor=none;points=[[0,0.5],[1,0.5]];portConstraint=eastwest;top=0;left=0;right=0;bottom=0;" vertex="1" parent="Wo0gHfEfH4QIrRDhFoly-55">
          <mxGeometry y="60" width="220" height="30" as="geometry" />
        </mxCell>
        <mxCell id="Wo0gHfEfH4QIrRDhFoly-60" value="" style="shape=partialRectangle;overflow=hidden;connectable=0;fillColor=none;top=0;left=0;bottom=0;right=0;" vertex="1" parent="Wo0gHfEfH4QIrRDhFoly-59">
          <mxGeometry width="30" height="30" as="geometry">
            <mxRectangle width="30" height="30" as="alternateBounds" />
          </mxGeometry>
        </mxCell>
        <mxCell id="Wo0gHfEfH4QIrRDhFoly-61" value="name string NOT NULL" style="shape=partialRectangle;overflow=hidden;connectable=0;fillColor=none;top=0;left=0;bottom=0;right=0;align=left;spacingLeft=6;" vertex="1" parent="Wo0gHfEfH4QIrRDhFoly-59">
          <mxGeometry x="30" width="190" height="30" as="geometry">
            <mxRectangle width="190" height="30" as="alternateBounds" />
          </mxGeometry>
        </mxCell>
        <mxCell id="Wo0gHfEfH4QIrRDhFoly-63" value="" style="edgeStyle=entityRelationEdgeStyle;endArrow=ERzeroToMany;startArrow=ERone;endFill=1;startFill=0;exitX=1;exitY=0.5;exitDx=0;exitDy=0;entryX=0;entryY=0.5;entryDx=0;entryDy=0;" edge="1" parent="1" source="Wo0gHfEfH4QIrRDhFoly-56" target="C-vyLk0tnHw3VtMMgP7b-6">
          <mxGeometry width="100" height="100" relative="1" as="geometry">
            <mxPoint x="320" y="890" as="sourcePoint" />
            <mxPoint x="370" y="1032" as="targetPoint" />
          </mxGeometry>
        </mxCell>
        <mxCell id="Wo0gHfEfH4QIrRDhFoly-64" value="&lt;b&gt;&lt;font style=&quot;font-size: 21px;&quot;&gt;&lt;u&gt;ER TO Relational Mapping&lt;/u&gt;&lt;/font&gt;&lt;/b&gt;" style="text;html=1;align=center;verticalAlign=middle;resizable=0;points=[];autosize=1;strokeColor=none;fillColor=none;" vertex="1" parent="1">
          <mxGeometry x="50" y="500" width="290" height="40" as="geometry" />
        </mxCell>
      </root>
    </mxGraphModel>
  </diagram>
</mxfile>
